# xmcd CD database file
#
# Track frame offsets:
#	150
#	22212
#	42317
#	59925
#	76715
#	101647
#	117915
#	136237
#	153632
#	169112
#	189697
#	211834
#
# Disc length: 3082 seconds
#
# Revision: 6
# Processed by: cddbd v1.5.1PL2 Copyright (c) Steve Scherf et al.
# Submitted via: Feurio! 1.68 - http://www.feurio.com
#
DISCID=aa0c080c
DTITLE=Mary Black - Speaking With The Angel
DYEAR=1999
DGENRE=Celtic
TTITLE0=Turning Away
TTITLE1=Cut By Wire
TTITLE2=Don't Say Okay
TTITLE3=Bless The Road
TTITLE4=Broken Wings
TTITLE5=Fall At Your Feet
TTITLE6=Message Of Love
TTITLE7=Moments
TTITLE8=Speaking With The Angel
TTITLE9=Big Trip To Portland
TTITLE10=I Live Not Where I Love
TTITLE11=Fields Of Gold
EXTD=
EXTT0=
EXTT1=
EXTT2=
EXTT3=
EXTT4=
EXTT5=
EXTT6=
EXTT7=
EXTT8=
EXTT9=
EXTT10=
EXTT11=
PLAYORDER=
